<?xml version="1.0" encoding="UTF-8"?>
<svg width="1024" height="1024" viewBox="0 0 1024 1024" xmlns="http://www.w3.org/2000/svg" role="img" aria-labelledby="title desc">
<title id="title">Logo dashboard food - stencil posate intrecciate bianco su nero</title>
<desc id="desc">Logo vettorializzato dalla prima immagine in versione bianca su fondo nero.</desc>
<defs>
  <style>
    .logo-shape { fill-rule: evenodd; }
  </style>
</defs>
<path class="logo-shape" fill="#ffffff" d="
    M 877 410 L 874 409 L 876 407 L 873 405 L 869 389 L 855 354 L 836 319 L 833 328 L 830 329 L 831 333 L 825 348 L 821 352 L 823 353 L 822 357 L 825 358 L 824 361 L 827 363 L 831 372 L 831 379 L 835 383 L 841 403 L 839 405 L 842 406 L 843 410 L 841 412 L 844 414 L 842 416 L 845 418 L 846 424 L 844 425 L 847 427 L 847 429 L 845 430 L 848 432 L 848 435 L 846 437 L 849 438 L 847 444 L 850 444 L 850 448 L 848 450 L 851 453 L 851 455 L 849 456 L 851 457 L 852 471 L 850 472 L 850 474 L 852 475 L 852 495 L 850 496 L 852 497 L 852 512 L 851 516 L 849 517 L 851 519 L 850 529 L 847 530 L 849 532 L 843 562 L 838 578 L 835 579 L 837 581 L 822 616 L 809 639 L 805 644 L 803 644 L 803 648 L 785 672 L 781 673 L 782 675 L 775 680 L 776 682 L 769 689 L 767 689 L 762 697 L 760 696 L 760 699 L 758 698 L 758 700 L 754 702 L 747 711 L 745 710 L 740 714 L 738 713 L 739 715 L 736 717 L 737 719 L 734 719 L 732 723 L 730 722 L 726 724 L 718 731 L 717 734 L 715 732 L 714 736 L 711 735 L 709 737 L 706 737 L 702 741 L 702 744 L 699 743 L 698 746 L 695 745 L 693 749 L 680 756 L 678 754 L 672 760 L 667 762 L 663 761 L 663 763 L 660 765 L 658 763 L 655 767 L 650 766 L 646 770 L 635 774 L 633 772 L 632 775 L 630 773 L 629 776 L 627 774 L 625 777 L 611 781 L 609 779 L 606 782 L 603 780 L 602 783 L 599 783 L 598 781 L 596 784 L 594 782 L 592 785 L 589 785 L 587 783 L 586 786 L 584 786 L 583 784 L 578 787 L 576 787 L 575 785 L 569 785 L 570 787 L 568 789 L 566 788 L 563 794 L 558 796 L 558 799 L 554 797 L 555 799 L 541 807 L 541 810 L 537 809 L 535 812 L 533 811 L 536 807 L 534 805 L 537 802 L 540 803 L 542 801 L 541 799 L 544 798 L 550 791 L 552 792 L 551 789 L 557 780 L 559 774 L 558 771 L 561 767 L 562 760 L 560 759 L 560 756 L 563 752 L 563 749 L 561 748 L 561 746 L 563 745 L 563 736 L 560 736 L 562 727 L 560 726 L 561 721 L 558 718 L 560 714 L 557 712 L 557 710 L 559 709 L 556 707 L 558 705 L 555 702 L 557 699 L 553 695 L 555 692 L 553 693 L 553 696 L 550 697 L 552 698 L 552 703 L 549 705 L 551 709 L 548 713 L 550 714 L 549 719 L 545 722 L 548 723 L 548 726 L 545 728 L 547 728 L 548 731 L 544 732 L 540 727 L 540 722 L 542 721 L 542 719 L 539 717 L 539 715 L 541 714 L 541 710 L 538 709 L 540 707 L 540 703 L 537 703 L 539 699 L 536 697 L 538 692 L 535 689 L 538 688 L 536 684 L 539 682 L 537 679 L 540 678 L 538 674 L 541 673 L 539 670 L 542 669 L 540 667 L 542 662 L 545 663 L 545 668 L 547 668 L 546 666 L 548 665 L 551 670 L 553 669 L 554 672 L 561 674 L 561 677 L 564 679 L 567 678 L 567 681 L 569 683 L 574 683 L 575 686 L 579 686 L 579 689 L 582 688 L 583 691 L 587 694 L 590 693 L 591 696 L 595 696 L 597 700 L 602 700 L 607 706 L 613 709 L 615 708 L 631 716 L 634 720 L 637 719 L 641 721 L 642 724 L 645 723 L 655 728 L 655 730 L 659 729 L 680 737 L 681 740 L 685 737 L 687 739 L 687 737 L 690 735 L 695 735 L 698 730 L 701 731 L 703 727 L 706 728 L 705 726 L 709 723 L 714 723 L 713 721 L 716 721 L 716 718 L 719 719 L 720 715 L 724 715 L 724 712 L 729 708 L 731 709 L 732 706 L 734 707 L 733 705 L 736 705 L 735 703 L 738 703 L 741 700 L 742 690 L 744 689 L 741 686 L 743 682 L 740 680 L 737 666 L 714 648 L 679 625 L 621 592 L 619 588 L 616 589 L 609 585 L 609 582 L 606 583 L 605 580 L 600 580 L 592 576 L 593 578 L 588 579 L 590 581 L 587 584 L 585 583 L 586 585 L 583 588 L 580 587 L 582 590 L 579 590 L 580 592 L 577 595 L 573 595 L 574 598 L 571 601 L 568 601 L 567 605 L 565 603 L 565 605 L 549 619 L 548 623 L 545 623 L 545 626 L 542 625 L 540 627 L 542 629 L 538 633 L 536 632 L 532 638 L 529 637 L 531 639 L 528 639 L 525 644 L 523 643 L 519 649 L 516 649 L 515 652 L 513 651 L 513 649 L 514 653 L 511 653 L 510 657 L 502 660 L 493 667 L 494 669 L 492 671 L 490 670 L 484 674 L 479 681 L 476 683 L 473 681 L 470 687 L 467 687 L 467 690 L 464 689 L 465 691 L 462 691 L 463 693 L 461 694 L 461 699 L 458 700 L 460 704 L 458 706 L 456 704 L 455 706 L 459 713 L 457 714 L 456 712 L 452 715 L 456 715 L 456 719 L 450 722 L 453 723 L 453 726 L 455 728 L 450 728 L 449 738 L 454 740 L 455 742 L 449 748 L 452 745 L 458 750 L 457 753 L 455 751 L 456 761 L 459 762 L 458 768 L 462 771 L 460 773 L 461 776 L 467 783 L 466 786 L 471 793 L 484 803 L 487 808 L 489 807 L 494 810 L 493 812 L 491 811 L 490 815 L 479 812 L 478 810 L 480 809 L 475 810 L 472 805 L 467 806 L 466 803 L 464 804 L 462 800 L 460 801 L 457 796 L 455 797 L 452 794 L 453 792 L 450 792 L 447 788 L 448 786 L 443 783 L 444 781 L 441 783 L 440 780 L 437 779 L 434 781 L 432 777 L 428 779 L 424 775 L 422 777 L 417 775 L 415 772 L 408 772 L 407 769 L 405 771 L 393 766 L 392 763 L 388 764 L 388 761 L 385 760 L 383 762 L 364 753 L 363 750 L 358 750 L 352 747 L 351 744 L 349 745 L 338 739 L 337 735 L 333 736 L 331 732 L 324 727 L 322 729 L 322 726 L 317 723 L 315 724 L 314 721 L 312 722 L 309 720 L 307 716 L 305 717 L 303 713 L 301 714 L 299 710 L 297 711 L 296 707 L 294 708 L 293 705 L 291 706 L 287 703 L 287 700 L 285 701 L 281 695 L 279 696 L 276 693 L 277 691 L 273 691 L 252 670 L 253 668 L 251 668 L 249 664 L 244 661 L 245 659 L 243 659 L 237 653 L 217 626 L 193 581 L 184 556 L 185 552 L 182 549 L 178 532 L 180 528 L 177 526 L 176 521 L 178 514 L 175 514 L 177 508 L 174 504 L 176 495 L 174 494 L 173 490 L 173 468 L 176 464 L 174 462 L 174 459 L 176 458 L 174 456 L 176 435 L 179 432 L 177 428 L 180 426 L 178 422 L 181 420 L 179 418 L 181 407 L 184 407 L 182 403 L 185 401 L 183 399 L 186 388 L 189 387 L 188 384 L 190 383 L 188 381 L 191 372 L 194 371 L 192 370 L 193 368 L 190 367 L 176 336 L 161 369 L 155 389 L 152 392 L 153 396 L 148 417 L 145 419 L 147 420 L 147 422 L 144 425 L 146 426 L 144 434 L 140 469 L 140 510 L 147 562 L 159 603 L 170 630 L 186 660 L 194 671 L 194 675 L 198 677 L 207 690 L 206 692 L 211 695 L 214 699 L 213 701 L 218 704 L 237 727 L 254 744 L 283 768 L 286 773 L 288 772 L 301 781 L 304 786 L 307 785 L 307 788 L 311 788 L 318 792 L 320 796 L 325 796 L 333 801 L 334 804 L 339 804 L 342 806 L 342 808 L 347 808 L 348 811 L 351 810 L 352 813 L 355 812 L 374 821 L 374 823 L 376 821 L 377 824 L 380 823 L 384 827 L 386 825 L 394 828 L 395 831 L 397 829 L 402 833 L 406 832 L 407 835 L 409 833 L 423 837 L 425 840 L 427 838 L 430 841 L 432 840 L 433 842 L 434 840 L 440 841 L 441 844 L 442 842 L 456 844 L 458 847 L 462 845 L 464 848 L 469 846 L 471 849 L 474 849 L 476 847 L 478 850 L 480 850 L 481 848 L 503 849 L 506 852 L 507 850 L 535 850 L 536 852 L 537 850 L 540 850 L 541 852 L 545 849 L 564 848 L 565 850 L 567 850 L 570 847 L 587 845 L 588 847 L 591 844 L 599 843 L 600 845 L 602 842 L 612 840 L 615 842 L 616 840 L 619 841 L 621 838 L 624 840 L 628 836 L 630 838 L 632 835 L 635 837 L 635 834 L 637 834 L 638 836 L 638 834 L 640 833 L 641 835 L 642 832 L 644 834 L 645 832 L 648 833 L 651 829 L 653 831 L 654 828 L 656 830 L 657 827 L 664 827 L 665 824 L 667 826 L 672 824 L 672 821 L 679 821 L 679 819 L 684 816 L 688 817 L 691 813 L 710 804 L 732 790 L 735 791 L 734 789 L 741 784 L 745 784 L 748 779 L 769 763 L 793 740 L 807 724 L 809 724 L 808 722 L 816 713 L 836 684 L 856 646 L 861 632 L 864 631 L 863 627 L 868 612 L 871 611 L 869 609 L 872 608 L 870 606 L 875 591 L 877 578 L 880 576 L 878 573 L 884 540 L 886 507 L 885 477 L 887 476 L 887 474 L 885 473 L 883 450 L 880 436 L 882 434 L 879 431 L 875 411 Z
    M 852 200 L 843 202 L 813 219 L 784 242 L 770 256 L 768 256 L 768 258 L 762 265 L 759 265 L 760 267 L 752 276 L 750 275 L 751 277 L 744 285 L 742 284 L 743 286 L 738 291 L 736 291 L 737 293 L 734 293 L 735 295 L 733 297 L 729 297 L 731 297 L 732 299 L 729 302 L 727 301 L 728 303 L 723 306 L 724 308 L 719 311 L 720 313 L 707 324 L 705 327 L 706 330 L 698 336 L 699 338 L 696 342 L 694 341 L 694 345 L 685 356 L 678 361 L 679 363 L 677 366 L 671 370 L 672 372 L 669 376 L 666 376 L 667 378 L 663 384 L 656 389 L 657 391 L 647 404 L 643 408 L 641 408 L 642 410 L 621 435 L 612 444 L 610 444 L 609 448 L 600 457 L 597 457 L 597 459 L 594 460 L 594 462 L 587 469 L 585 468 L 585 470 L 566 487 L 564 486 L 564 489 L 561 491 L 559 490 L 554 497 L 540 508 L 537 508 L 537 510 L 491 545 L 487 545 L 484 550 L 463 564 L 459 564 L 459 566 L 441 578 L 439 577 L 437 581 L 434 580 L 432 584 L 412 596 L 409 595 L 407 599 L 382 613 L 379 612 L 377 616 L 346 633 L 344 632 L 343 635 L 329 642 L 308 656 L 304 656 L 302 660 L 283 674 L 281 673 L 280 677 L 294 689 L 293 691 L 295 690 L 304 698 L 304 700 L 306 699 L 311 706 L 315 706 L 318 711 L 320 710 L 325 714 L 326 717 L 330 717 L 339 723 L 339 725 L 341 724 L 342 727 L 347 727 L 351 731 L 353 731 L 354 728 L 376 720 L 379 721 L 380 718 L 393 712 L 396 713 L 397 710 L 401 708 L 404 709 L 405 706 L 409 704 L 411 705 L 412 702 L 415 703 L 415 701 L 419 698 L 422 699 L 422 697 L 425 697 L 426 694 L 431 694 L 433 690 L 436 691 L 436 688 L 439 689 L 443 684 L 447 684 L 449 680 L 451 682 L 456 678 L 457 675 L 459 676 L 464 673 L 466 669 L 468 670 L 471 668 L 471 665 L 480 659 L 482 660 L 482 658 L 485 658 L 487 654 L 489 655 L 496 650 L 495 648 L 505 640 L 507 641 L 507 639 L 511 635 L 513 636 L 513 634 L 517 630 L 520 630 L 520 628 L 532 618 L 534 619 L 536 617 L 535 615 L 538 615 L 542 609 L 544 610 L 552 600 L 555 603 L 554 601 L 557 596 L 562 595 L 562 591 L 567 586 L 570 587 L 570 584 L 585 569 L 587 569 L 587 567 L 593 560 L 595 561 L 594 559 L 605 547 L 607 548 L 606 546 L 611 543 L 610 541 L 613 538 L 615 538 L 614 536 L 633 512 L 638 512 L 639 509 L 643 511 L 644 508 L 646 508 L 647 510 L 659 510 L 660 508 L 671 509 L 693 516 L 709 525 L 731 494 L 756 453 L 778 409 L 781 408 L 781 402 L 788 388 L 791 387 L 790 383 L 796 370 L 799 369 L 797 367 L 801 358 L 804 357 L 803 353 L 806 352 L 805 348 L 813 328 L 816 327 L 814 325 L 817 317 L 822 311 L 821 307 L 842 245 Z
    M 520 191 L 514 191 L 513 193 L 508 192 L 507 194 L 502 193 L 500 196 L 498 196 L 497 194 L 495 197 L 493 196 L 492 199 L 480 205 L 478 204 L 478 206 L 476 208 L 474 207 L 474 209 L 466 217 L 464 216 L 464 219 L 457 227 L 455 226 L 455 229 L 452 230 L 453 233 L 447 241 L 440 256 L 436 259 L 438 261 L 436 264 L 434 264 L 436 266 L 433 267 L 434 269 L 431 273 L 433 275 L 430 275 L 431 279 L 428 283 L 430 284 L 429 290 L 426 291 L 428 292 L 428 294 L 425 296 L 427 297 L 427 299 L 424 302 L 425 306 L 423 307 L 425 308 L 423 336 L 421 337 L 421 342 L 423 343 L 424 356 L 422 357 L 425 360 L 423 366 L 425 367 L 424 371 L 427 374 L 425 376 L 428 378 L 428 380 L 426 381 L 429 382 L 427 384 L 430 385 L 432 391 L 431 395 L 434 398 L 433 400 L 435 404 L 439 406 L 439 411 L 441 410 L 445 416 L 457 427 L 457 429 L 459 428 L 476 442 L 475 444 L 482 449 L 485 455 L 486 470 L 484 471 L 486 473 L 486 483 L 483 484 L 483 490 L 485 491 L 484 498 L 506 513 L 512 509 L 515 510 L 516 507 L 519 507 L 522 502 L 535 493 L 537 494 L 539 490 L 539 484 L 541 483 L 541 480 L 539 479 L 539 477 L 542 475 L 540 474 L 540 471 L 543 470 L 542 464 L 545 462 L 544 458 L 547 457 L 547 452 L 553 446 L 555 447 L 556 444 L 558 445 L 560 441 L 578 429 L 593 411 L 600 397 L 604 381 L 607 379 L 605 377 L 608 376 L 606 372 L 609 350 L 611 349 L 609 348 L 609 346 L 611 345 L 609 344 L 609 334 L 611 332 L 609 331 L 608 326 L 610 318 L 607 315 L 609 311 L 606 308 L 606 305 L 608 303 L 605 301 L 603 291 L 605 288 L 602 287 L 604 285 L 602 284 L 603 281 L 600 279 L 602 277 L 599 276 L 601 274 L 599 273 L 600 271 L 598 270 L 598 265 L 595 264 L 593 259 L 595 257 L 591 254 L 592 249 L 590 250 L 587 246 L 588 243 L 585 242 L 586 239 L 584 239 L 584 236 L 581 235 L 581 231 L 578 230 L 573 223 L 553 205 L 553 203 L 551 204 L 550 201 L 548 202 L 541 199 L 541 196 L 533 196 L 530 193 L 528 195 L 527 192 L 524 192 L 522 194 Z
    M 167 263 L 167 267 L 180 302 L 208 363 L 206 365 L 209 366 L 209 371 L 212 372 L 217 382 L 216 385 L 219 386 L 236 417 L 250 437 L 272 459 L 293 470 L 309 474 L 328 476 L 329 479 L 331 477 L 338 480 L 375 516 L 374 518 L 376 518 L 396 538 L 395 540 L 397 540 L 410 553 L 409 555 L 411 554 L 424 568 L 429 566 L 431 567 L 432 564 L 450 553 L 453 554 L 454 551 L 456 552 L 458 548 L 468 542 L 464 539 L 464 537 L 462 538 L 456 533 L 456 530 L 454 531 L 451 529 L 451 526 L 449 527 L 445 524 L 439 516 L 437 517 L 433 513 L 433 511 L 431 512 L 424 506 L 425 504 L 423 505 L 419 501 L 419 499 L 417 500 L 413 494 L 411 495 L 399 484 L 400 482 L 398 483 L 393 476 L 391 477 L 389 475 L 388 471 L 385 471 L 374 460 L 375 458 L 391 467 L 392 470 L 394 469 L 405 476 L 405 478 L 407 477 L 414 481 L 414 484 L 418 484 L 438 498 L 439 501 L 442 500 L 444 504 L 446 503 L 453 508 L 456 513 L 458 512 L 481 530 L 481 532 L 485 532 L 486 529 L 488 530 L 488 527 L 494 524 L 493 522 L 477 513 L 472 507 L 468 507 L 463 504 L 461 500 L 459 501 L 451 496 L 449 492 L 445 492 L 438 487 L 435 482 L 433 483 L 427 479 L 427 476 L 425 477 L 423 473 L 421 474 L 383 442 L 384 440 L 382 438 L 386 433 L 384 431 L 385 424 L 388 424 L 386 422 L 386 417 L 388 415 L 385 412 L 387 409 L 384 406 L 382 398 L 384 396 L 381 395 L 375 382 L 376 377 L 375 379 L 372 377 L 361 360 L 361 356 L 358 355 L 352 347 L 353 345 L 351 345 L 343 335 L 344 333 L 337 328 L 323 310 L 324 308 L 321 308 L 317 303 L 318 301 L 313 298 L 314 296 L 307 291 L 293 274 L 294 272 L 292 272 L 250 223 L 245 223 L 243 225 L 244 229 L 271 275 L 270 277 L 272 277 L 275 281 L 275 285 L 277 285 L 288 303 L 287 305 L 291 307 L 299 320 L 298 323 L 302 325 L 304 328 L 303 331 L 307 333 L 316 348 L 316 352 L 319 353 L 319 355 L 314 359 L 309 355 L 309 351 L 306 351 L 303 346 L 304 344 L 301 344 L 226 238 L 222 234 L 219 234 L 216 238 L 225 256 L 271 336 L 270 339 L 273 339 L 280 352 L 279 354 L 281 354 L 285 360 L 284 363 L 286 363 L 290 369 L 288 373 L 283 375 L 281 373 L 282 370 L 278 368 L 251 328 L 251 324 L 248 323 L 202 253 L 197 247 L 191 249 L 197 265 L 223 314 L 222 317 L 225 318 L 231 329 L 230 332 L 233 333 L 250 364 L 249 367 L 252 368 L 262 386 L 256 392 L 254 391 L 202 309 L 174 262 L 171 260 Z
    M 276 225 L 291 244 L 295 246 L 316 229 L 344 211 L 372 197 L 375 198 L 377 195 L 397 187 L 399 189 L 400 186 L 406 184 L 410 185 L 415 181 L 417 183 L 419 180 L 435 176 L 439 178 L 440 175 L 443 177 L 445 174 L 447 174 L 448 176 L 451 173 L 471 170 L 480 172 L 483 169 L 487 169 L 488 171 L 495 171 L 497 169 L 498 171 L 501 168 L 524 169 L 525 171 L 534 171 L 535 169 L 540 169 L 541 172 L 551 170 L 554 173 L 558 171 L 560 174 L 566 172 L 567 175 L 570 175 L 572 173 L 582 175 L 583 178 L 585 176 L 587 176 L 589 179 L 590 177 L 607 181 L 609 184 L 610 182 L 614 183 L 615 186 L 618 184 L 658 200 L 659 203 L 663 202 L 670 206 L 672 209 L 674 208 L 680 211 L 680 214 L 683 213 L 697 221 L 724 240 L 743 257 L 746 256 L 762 238 L 762 236 L 748 224 L 712 198 L 680 180 L 640 164 L 639 161 L 637 163 L 618 157 L 616 154 L 614 156 L 594 151 L 592 148 L 591 150 L 589 150 L 587 147 L 586 149 L 577 148 L 577 145 L 572 147 L 564 146 L 560 143 L 559 145 L 528 142 L 492 142 L 460 145 L 426 151 L 394 160 L 350 177 L 307 201 Z
    M 245 452 L 243 476 L 241 477 L 243 478 L 241 480 L 243 481 L 244 511 L 250 538 L 257 558 L 268 580 L 281 599 L 300 619 L 317 630 L 297 601 L 286 579 L 278 557 L 272 531 L 274 530 L 271 527 L 271 525 L 273 524 L 270 520 L 272 513 L 269 510 L 269 505 L 271 504 L 269 503 L 269 489 L 271 488 L 269 486 L 271 485 L 271 478 Z
    M 577 495 L 578 499 L 562 515 L 560 515 L 560 517 L 546 531 L 544 530 L 545 532 L 542 535 L 540 534 L 539 537 L 536 538 L 529 547 L 527 546 L 528 548 L 522 553 L 518 553 L 519 555 L 517 557 L 515 556 L 516 558 L 513 558 L 508 565 L 506 565 L 505 563 L 505 567 L 503 569 L 501 568 L 499 572 L 494 572 L 494 576 L 490 579 L 488 578 L 488 581 L 485 580 L 484 584 L 481 583 L 478 585 L 480 586 L 479 588 L 475 588 L 471 591 L 470 594 L 466 593 L 468 595 L 463 596 L 463 599 L 461 598 L 461 600 L 458 600 L 457 603 L 455 602 L 446 609 L 442 609 L 441 614 L 437 614 L 424 622 L 424 625 L 420 627 L 417 626 L 418 628 L 410 633 L 408 631 L 404 636 L 400 635 L 400 638 L 395 638 L 392 642 L 389 641 L 388 644 L 386 643 L 386 641 L 382 644 L 381 647 L 378 646 L 377 649 L 362 655 L 359 654 L 366 648 L 368 650 L 370 648 L 369 646 L 372 646 L 375 641 L 381 637 L 383 638 L 385 634 L 389 634 L 392 629 L 401 623 L 403 624 L 406 619 L 412 615 L 414 616 L 416 612 L 419 610 L 421 611 L 422 608 L 424 609 L 426 605 L 428 606 L 428 604 L 430 602 L 432 603 L 432 601 L 441 594 L 443 595 L 443 592 L 446 590 L 449 591 L 448 589 L 450 587 L 453 588 L 457 582 L 460 580 L 462 581 L 462 578 L 470 572 L 474 572 L 474 570 L 476 568 L 478 569 L 480 565 L 482 566 L 483 563 L 485 564 L 489 558 L 511 542 L 513 543 L 516 538 L 519 536 L 521 537 L 524 532 L 567 500 L 569 501 L 568 499 L 573 495 Z
    M 539 212 L 549 218 L 548 220 L 550 219 L 558 226 L 557 228 L 563 232 L 562 234 L 566 236 L 565 238 L 568 239 L 567 241 L 571 243 L 574 248 L 573 251 L 576 257 L 579 258 L 582 265 L 580 267 L 582 267 L 584 270 L 582 272 L 585 273 L 583 275 L 586 276 L 586 285 L 589 287 L 587 289 L 590 291 L 588 293 L 591 295 L 592 300 L 590 302 L 592 304 L 592 321 L 589 324 L 595 324 L 595 328 L 593 329 L 593 336 L 595 337 L 594 354 L 591 356 L 591 358 L 593 359 L 592 366 L 589 368 L 591 370 L 588 371 L 590 373 L 585 387 L 580 391 L 582 393 L 569 409 L 567 407 L 575 394 L 578 392 L 577 388 L 581 384 L 579 382 L 584 373 L 582 370 L 584 358 L 586 357 L 586 355 L 584 354 L 586 352 L 586 349 L 586 351 L 582 353 L 584 355 L 581 356 L 582 361 L 579 362 L 581 364 L 577 373 L 573 376 L 574 379 L 560 396 L 558 395 L 558 393 L 561 389 L 563 389 L 562 386 L 567 381 L 566 377 L 569 375 L 568 371 L 571 369 L 570 363 L 573 362 L 574 358 L 572 353 L 575 352 L 575 348 L 573 346 L 576 345 L 576 336 L 579 334 L 574 331 L 574 319 L 577 319 L 577 324 L 579 322 L 578 318 L 584 317 L 581 317 L 581 313 L 578 313 L 574 310 L 578 307 L 577 305 L 577 307 L 575 308 L 573 304 L 576 302 L 579 303 L 578 299 L 574 299 L 572 297 L 573 295 L 575 295 L 571 291 L 573 289 L 573 287 L 570 285 L 572 281 L 569 280 L 571 276 L 568 276 L 570 272 L 563 250 L 560 250 L 562 248 L 561 245 L 558 245 L 557 242 L 559 241 L 555 239 L 556 236 L 554 232 L 551 231 L 552 229 L 549 228 L 538 214 Z
    M 589 607 L 598 597 L 616 607 L 616 609 L 619 608 L 621 612 L 628 613 L 637 618 L 638 621 L 640 620 L 651 626 L 653 630 L 655 629 L 682 645 L 694 653 L 695 656 L 697 655 L 700 661 L 689 674 L 684 676 L 683 673 L 679 673 L 672 668 L 670 664 L 668 665 L 665 660 L 663 661 L 658 658 L 658 655 L 654 655 L 641 646 L 639 642 L 637 643 L 627 636 L 625 632 L 623 633 L 619 630 L 619 628 L 617 629 L 615 625 L 611 625 L 611 622 L 608 623 L 603 619 L 604 617 L 600 617 L 597 615 L 598 613 L 596 614 L 595 611 L 591 611 Z
    M 423 256 L 417 256 L 400 263 L 397 262 L 396 265 L 382 271 L 362 284 L 360 283 L 357 288 L 341 301 L 337 302 L 342 307 L 341 309 L 344 310 L 347 313 L 346 315 L 348 315 L 357 325 L 365 318 L 368 318 L 368 316 L 373 312 L 377 312 L 377 309 L 381 309 L 381 307 L 397 297 L 400 298 L 400 296 L 405 293 L 407 295 L 407 293 L 411 290 L 414 276 L 417 273 L 416 269 L 419 260 Z
    M 793 341 L 794 343 L 787 360 L 761 408 L 757 410 L 758 412 L 754 419 L 749 422 L 750 425 L 743 434 L 740 435 L 740 439 L 733 445 L 734 447 L 714 472 L 712 474 L 709 474 L 710 476 L 706 478 L 707 480 L 695 493 L 693 491 L 690 493 L 688 490 L 687 492 L 678 490 L 677 488 L 688 478 L 690 479 L 689 477 L 707 458 L 710 457 L 709 455 L 735 423 L 740 420 L 739 418 L 742 417 L 741 415 L 747 406 L 752 403 L 751 401 L 754 400 L 754 396 L 757 396 L 757 392 L 786 349 Z
    M 609 257 L 612 263 L 610 265 L 611 268 L 614 269 L 612 271 L 615 273 L 614 277 L 618 282 L 616 285 L 619 286 L 619 291 L 625 293 L 626 296 L 629 295 L 631 298 L 634 297 L 650 306 L 679 327 L 670 313 L 646 291 L 647 289 L 667 299 L 689 316 L 691 316 L 696 311 L 676 292 L 653 276 L 633 265 L 617 259 L 615 256 Z
    M 773 450 L 768 464 L 763 472 L 765 488 L 765 514 L 760 553 L 750 588 L 743 605 L 729 631 L 741 619 L 756 596 L 765 576 L 773 549 L 778 513 L 777 476 Z
    M 542 732 L 547 735 L 544 750 L 542 749 Z
    M 585 487 L 586 490 L 578 497 L 577 493 Z
    M 533 810 L 532 813 L 523 813 L 529 808 Z
    M 491 813 L 498 812 L 501 815 L 492 816 Z
    M 450 733 L 452 732 L 455 737 L 451 738 Z
"/>
</svg>
